<?xml version="1.0" encoding="utf-8"?><!-- Generator: Adobe Illustrator 16.0.0, SVG Export Plug-In . SVG Version: 6.00 Build 0)  --><!DOCTYPE svg PUBLIC "-//W3C//DTD SVG 1.1//EN" "http://www.w3.org/Graphics/SVG/1.1/DTD/svg11.dtd"><svg version="1.1" id="Layer_3" xmlns="http://www.w3.org/2000/svg" xmlns:xlink="http://www.w3.org/1999/xlink" x="0px" y="0px" width="333" height="140" viewBox="0 0 108 108" enable-background="new 0 0 108 108" xml:space="preserve"><g id="Layer_3_1_"><g><path fill="#FFFFFF" d="M17.727,102.019c-6.446,0-11.691-5.244-11.691-11.691V16.754c0-6.445,5.245-11.69,11.691-11.69h73.571c6.446,0,11.691,5.245,11.691,11.69v73.573c0,6.445-5.245,11.69-11.691,11.69L17.727,102.019L17.727,102.019z"/><path fill="#D1D1D1" d="M6.767,90.327c0,6.043,4.918,10.96,10.96,10.96h73.571c6.043,0,10.96-4.916,10.96-10.96V16.754C102.259,16.754,78.731,78.839,6.767,90.327z"/><path d="M85.788,11.972H23.237c-5.676,0-10.294,4.618-10.294,10.293v62.551c0,5.677,4.619,10.293,10.294,10.293h62.551c5.677,0,10.292-4.618,10.292-10.293V22.266C96.082,16.59,91.465,11.972,85.788,11.972z M85.788,93.647H23.237c-4.869,0-8.83-3.961-8.83-8.829V22.266c0-4.87,3.961-8.831,8.83-8.831h62.551c4.869,0,8.83,3.961,8.83,8.831v62.551C94.62,89.685,90.657,93.647,85.788,93.647z"/><path d="M21.366,97.711L21.366,97.711c-6.078,0-11.022-4.946-11.022-11.021V20.394c0-6.075,4.944-11.021,11.022-11.021h66.295c6.076,0,11.021,4.944,11.021,11.021v66.295c0,6.074-4.945,11.021-11.021,11.021H21.366z M21.366,10.348c-5.541,0-10.046,4.508-10.046,10.046v66.295c0,5.541,4.507,10.047,10.046,10.047l66.295-0.002c5.54,0,10.046-4.506,10.046-10.048V20.394c0-5.54-4.506-10.046-10.046-10.046H21.366z"/><path d="M91.298,4.333H17.727c-6.85,0-12.422,5.572-12.422,12.421v73.573c0,6.849,5.572,12.422,12.422,12.422h73.571c6.85,0,12.423-5.573,12.423-12.422V16.754C103.722,9.905,98.148,4.333,91.298,4.333z M91.298,100.92H17.727c-5.852,0-10.595-4.741-10.595-10.593V16.754c0-5.851,4.744-10.594,10.595-10.594h73.571c5.853,0,10.595,4.744,10.595,10.594v73.573C101.893,96.179,97.15,100.92,91.298,100.92z"/></g></g><g enable-background="new    "><path fill="#D40014" d="M26.199,34.177c-1.982-2.694-4.02-5.465-6.034-8.204c1.99-2.703,4.037-5.486,6.034-8.2c1.979,2.691,4.024,5.471,6.031,8.201C30.224,28.704,28.178,31.487,26.199,34.177z"/></g><g><path fill="#093B5D" d="M23.43,56.74l1.23,3.94l-0.41,3.94c0,2.08,1.72,4.01,2.37,5.75s0.27,3.26,1.51,4.53s2.77,2.27,4.54,2.96c1.76,0.69,3.77,1.07,5.99,1.07h1.54h1.54h1.54h1.54c2.21,0,4.32-0.42,6.25-1.18c1.45-0.58,6.71-2.27,9.81-3.66V47.05c-0.44-0.53-0.99-1.12-1.71-1.77l-5.15-11.86c-1.96-5.61,1.71-12.42-1.73-11.97l-1.71,0.23c-3.44,0.46-7.81,7.91-7.45,10.99l1.28,7.27l0.09,1.78l-2.75-0.77l-1.54-0.51l-1.54-0.26c-3.18-0.31-4.32-0.69-6.25-0.46c-1.92,0.23-3.66,0.63-5.11,1.3s-2.63,1.59-3.44,2.86c-0.81,1.28-1.26,2.91-1.26,4.99l1.23,3.94L23.43,56.74z"/><path fill="#093B5D" d="M65.68,74.09v4.09c0,0.69,0.83,1.27,1.87,1.27h9.95c1.04,0,1.87-0.56,1.87-1.27V42.77c0-0.71-0.83-1.28-1.87-1.28h-9.95c-1.04,0-1.87,0.58-1.87,1.28v4.3V74.09z M68.72,71.03c0-2.1,1.62-3.82,3.62-3.82s3.62,1.71,3.62,3.82c0,2.1-1.62,3.82-3.62,3.82S68.72,73.14,68.72,71.03z"/></g></svg>
